HIERARCHY
ROOT Hips
{
  OFFSET 46.3413 95.602 7.85589
  CHANNELS 6 Xposition Yposition Zposition Zrotation Xrotation Yrotation
  JOINT spine
  {
    OFFSET 0 7.96568 0.458067
    CHANNELS 3 Zrotation Xrotation Yrotation
    JOINT spine1
    {
      OFFSET 0 10.2431 0
      CHANNELS 3 Zrotation Xrotation Yrotation
      JOINT spine2
      {
        OFFSET 0 9.81475 0
        CHANNELS 3 Zrotation Xrotation Yrotation
        JOINT Neck
        {
          OFFSET 0 25.1986 1.20138
          CHANNELS 3 Zrotation Xrotation Yrotation
          JOINT Head
          {
            OFFSET 0 7.61315 0
            CHANNELS 3 Zrotation Xrotation Yrotation
            End Site
            {
              OFFSET 0 18.4281 -6.07733
            }
          }
        }
        JOINT RightShoulder
        {
          OFFSET -4.1327 10.5992 -0.575451
          CHANNELS 3 Zrotation Xrotation Yrotation
          JOINT RightArm
          {
            OFFSET 0 13.9018 0
            CHANNELS 3 Zrotation Xrotation Yrotation
            JOINT RightArmRoll
            {
              OFFSET 0 7.01788 0
              CHANNELS 3 Zrotation Xrotation Yrotation
              JOINT RightForeArm
              {
                OFFSET 0 20.4406 0
                CHANNELS 3 Zrotation Xrotation Yrotation
                JOINT RightForeArmRoll
                {
                  OFFSET 0 7.87515 0
                  CHANNELS 3 Zrotation Xrotation Yrotation
                  JOINT RightHand
                  {
                    OFFSET 0 15.8037 0
                    CHANNELS 3 Zrotation Xrotation Yrotation
                    End Site
                    {
                      OFFSET 0 0 0
                    }
                  }
                }
              }
            }
          }
        }
        JOINT LeftShoulder
        {
          OFFSET 4.1327 10.5992 -0.575451
          CHANNELS 3 Zrotation Xrotation Yrotation
          JOINT LeftArm
          {
            OFFSET 0 13.9018 0
            CHANNELS 3 Zrotation Xrotation Yrotation
            JOINT LeftArmRoll
            {
              OFFSET 0 7.01789 0
              CHANNELS 3 Zrotation Xrotation Yrotation
              JOINT LeftForeArm
              {
                OFFSET 0 20.4406 0
                CHANNELS 3 Zrotation Xrotation Yrotation
                JOINT LeftForeArmRoll
                {
                  OFFSET 0 7.87515 0
                  CHANNELS 3 Zrotation Xrotation Yrotation
                  JOINT LeftHand
                  {
                    OFFSET 0 15.8037 0
                    CHANNELS 3 Zrotation Xrotation Yrotation
                    End Site
                    {
                      OFFSET 0 0 0
                    }
                  }
                }
              }
            }
          }
        }
      }
    }
  }
  JOINT RightUpLeg
  {
    OFFSET -7.06048 -1.2947 -1.0861
    CHANNELS 3 Zrotation Xrotation Yrotation
    JOINT RightUpLegRoll
    {
      OFFSET 0 18.5308 0
      CHANNELS 3 Zrotation Xrotation Yrotation
      JOINT RightLeg
      {
        OFFSET 0 -22.9476 0
        CHANNELS 3 Zrotation Xrotation Yrotation
        JOINT RightLegRoll
        {
          OFFSET 0 23.0226 0
          CHANNELS 3 Zrotation Xrotation Yrotation
          JOINT RightFoot
          {
            OFFSET 0 19.1625 0
            CHANNELS 3 Zrotation Xrotation Yrotation
            JOINT RightToeBase
            {
              OFFSET 0 16.0188 0
              CHANNELS 3 Zrotation Xrotation Yrotation
              End Site
              {
                OFFSET 0.00678979 7.75782 -0.894206
              }
            }
          }
        }
      }
    }
  }
  JOINT LeftUpLeg
  {
    OFFSET 7.06048 -1.2947 -1.0861
    CHANNELS 3 Zrotation Xrotation Yrotation
    JOINT LeftUpLegRoll
    {
      OFFSET 0 18.5309 0
      CHANNELS 3 Zrotation Xrotation Yrotation
      JOINT LeftLeg
      {
        OFFSET 0 22.9475 0
        CHANNELS 3 Zrotation Xrotation Yrotation
        JOINT LeftLegRoll
        {
          OFFSET 0 23.2355 0
          CHANNELS 3 Zrotation Xrotation Yrotation
          JOINT LeftFoot
          {
            OFFSET 0 18.9496 0
            CHANNELS 3 Zrotation Xrotation Yrotation
            JOINT LeftToeBase
            {
              OFFSET 0 16.0188 0
              CHANNELS 3 Zrotation Xrotation Yrotation
              End Site
              {
                OFFSET -0.0304289 7.75782 -0.894206
              }
            }
          }
        }
      }
    }
  }
}
MOTION
Frames: 10
Frame Time: 0.00208333
49.8234 95.569 7.47113 -1.97467 -4.01284 -5.28005 0.785537 -1.46757 0.0304699 1.5623 1.06707 -0.0230257 1.56355 2.7118 -0.0491616 0.767523 23.3256 11.3969 -5.93644 -7.22168 10.6637 64.8011 5.30319 2.13177 100.394 -0.299678 -32.4712 -7.52102e-006 -5.33935e-008 -7.20063e-006 29.3656 71.5562 -24.8424 -2.02938e-006 -2.67398e-006 -3.00747 8.02917 -4.95097 0.697496 -73.3739 -1.34062 2.31209 -95.2816 3.16062 39.2376 2.25476e-006 9.81456e-007 -7.90843e-006 -43.1048 77.4783 42.1147 1.35821e-005 2.7576e-005 3.00971 -8.02923 -4.95098 -0.697525 176.89 -3.28645 -2.70306 180 7.01521e-015 178.817 178.011 4.66472 179.554 -2.2159e-006 2.7903e-007 0.045354 -18.78 67.8871 19.4595 8.13218 25.2403 -3.48477 -171.896 -3.7574 -1.37312 4.5067e-006 -1.99009e-005 -1.2215 -2.32938 -9.06514 0.050938 -6.84131e-006 1.25732e-006 -0.260827 22.1392 71.4858 -22.9794 -8.13673 25.2697 3.44471 
49.8108 95.5755 7.4626 -1.97672 -4.0097 -5.29662 0.785506 -1.46586 0.0303141 1.56305 1.0705 -0.0236348 1.5643 2.71523 -0.0497893 0.782441 23.3113 11.4045 -5.95414 -7.21334 10.6739 64.8013 5.30295 2.1316 100.39 -0.286944 -32.4959 -7.52102e-006 -5.33935e-008 -7.20063e-006 29.3841 71.5415 -24.8445 -2.02938e-006 -2.67398e-006 -3.00747 8.02917 -4.95097 0.697496 -73.3596 -1.33887 2.30994 -95.3026 3.19719 39.1853 2.25476e-006 9.81456e-007 -7.90843e-006 -43.055 77.4163 42.0212 1.35821e-005 2.7576e-005 3.00971 -8.02923 -4.95098 -0.697525 176.898 -3.27474 -2.70765 180 7.01522e-015 178.818 178.01 4.66792 179.554 -2.2159e-006 2.7903e-007 0.045354 -18.7776 67.8865 19.4577 8.13218 25.2403 -3.48477 -171.888 -3.75529 -1.37808 4.5067e-006 -1.99009e-005 -1.22152 -2.32918 -9.06593 0.0508969 -6.84131e-006 1.25732e-006 -0.260782 22.1374 71.4843 -22.9775 -8.13672 25.2696 3.4437 
49.7993 95.574 7.46668 -1.97868 -4.00664 -5.31319 0.785453 -1.46411 0.0301822 1.56379 1.07402 -0.024218 1.56503 2.71874 -0.0503915 0.797608 23.2966 11.412 -5.97192 -7.20497 10.6841 64.8012 5.30251 2.13139 100.387 -0.274548 -32.5225 -7.52102e-006 -5.33935e-008 -7.20063e-006 29.403 71.5273 -24.847 -2.02938e-006 -2.67398e-006 -3.00747 8.02917 -4.95097 0.697496 -73.3449 -1.33713 2.30775 -95.3239 3.23303 39.1341 2.25476e-006 9.81456e-007 -7.90843e-006 -43.0081 77.3559 41.9317 1.35821e-005 2.7576e-005 3.00971 -8.02923 -4.95098 -0.697525 176.906 -3.26314 -2.71192 180 7.01522e-015 178.818 178.008 4.67091 179.554 -2.2159e-006 2.7903e-007 0.045354 -18.7753 67.8859 19.4558 8.13218 25.2403 -3.48477 -171.88 -3.7536 -1.38285 4.5067e-006 -1.99009e-005 -1.22156 -2.32895 -9.06608 0.0508672 -6.84131e-006 1.25732e-006 -0.260715 22.1353 71.4826 -22.9753 -8.13672 25.2696 3.44267 
49.7812 95.5728 7.45487 -1.98058 -4.00362 -5.32976 0.785383 -1.46233 0.030067 1.56453 1.07759 -0.0247833 1.56577 2.72232 -0.0509758 0.812953 23.2816 11.4194 -5.98977 -7.19658 10.6943 64.8009 5.30194 2.13115 100.383 -0.26239 -32.5506 -7.52102e-006 -5.33935e-008 -7.20063e-006 29.4222 71.5133 -24.8496 -2.02938e-006 -2.67398e-006 -3.00747 8.02917 -4.95097 0.697496 -73.3298 -1.3354 2.30552 -95.3452 3.26838 39.0837 2.25476e-006 9.81456e-007 -7.90843e-006 -42.9634 77.2965 41.8452 1.35821e-005 2.7576e-005 3.00971 -8.02923 -4.95098 -0.697525 176.914 -3.25162 -2.71597 180 7.01522e-015 178.818 178.006 4.67375 179.554 -2.2159e-006 2.7903e-007 0.045354 -18.7729 67.8854 19.4539 8.13218 25.2403 -3.48477 -171.872 -3.7522 -1.38748 4.5067e-006 -1.99009e-005 -1.2216 -2.32869 -9.06577 0.0508455 -6.84131e-006 1.25732e-006 -0.260633 22.133 71.4807 -22.9729 -8.13671 25.2695 3.44162 
49.7622 95.5683 7.446 -1.98244 -4.00063 -5.34632 0.785305 -1.46054 0.0299614 1.56527 1.0812 -0.0253382 1.5665 2.72593 -0.0515499 0.828399 23.2664 11.4268 -6.00765 -7.18819 10.7044 64.8004 5.30129 2.13089 100.379 -0.250371 -32.5795 -7.52102e-006 -5.33935e-008 -7.20063e-006 29.4415 71.4995 -24.8522 -2.02938e-006 -2.67398e-006 -3.00747 8.02917 -4.95097 0.697496 -73.3145 -1.33366 2.30328 -95.3666 3.30347 39.0337 2.25476e-006 9.81456e-007 -7.90843e-006 -42.9203 77.2378 41.7609 1.35821e-005 2.7576e-005 3.00971 -8.02923 -4.95098 -0.697525 176.921 -3.24015 -2.7199 180 7.01522e-015 178.819 178.004 4.67651 179.555 -2.2159e-006 2.7903e-007 0.045354 -18.7706 67.8848 19.4521 8.13218 25.2403 -3.48477 -171.864 -3.75097 -1.39204 4.5067e-006 -1.99009e-005 -1.22165 -2.32841 -9.0652 0.0508283 -6.84131e-006 1.25732e-006 -0.260541 22.1306 71.4787 -22.9703 -8.1367 25.2694 3.44057 
49.7514 95.5705 7.44023 -1.98429 -3.99765 -5.36289 0.785225 -1.45874 0.0298582 1.56601 1.08482 -0.0258905 1.56723 2.72954 -0.0521215 0.843873 23.2512 11.4342 -6.02554 -7.17979 10.7146 64.7999 5.30063 2.13062 100.376 -0.238394 -32.6085 -7.52102e-006 -5.33935e-008 -7.20063e-006 29.4608 71.4857 -24.855 -2.02938e-006 -2.67398e-006 -3.00747 8.02917 -4.95097 0.697496 -73.2992 -1.33193 2.30102 -95.388 3.33852 38.9839 2.25476e-006 9.81456e-007 -7.90843e-006 -42.8782 77.1791 41.6776 1.35821e-005 2.7576e-005 3.00971 -8.02923 -4.95098 -0.697525 176.929 -3.22868 -2.72379 180 7.01522e-015 178.819 178.001 4.67926 179.555 -2.2159e-006 2.7903e-007 0.045354 -18.7683 67.8843 19.4502 8.13218 25.2403 -3.48477 -171.857 -3.74978 -1.39659 4.5067e-006 -1.99009e-005 -1.2217 -2.32814 -9.06457 0.0508123 -6.84131e-006 1.25732e-006 -0.260448 22.1281 71.4767 -22.9676 -8.1367 25.2693 3.43951 
49.7432 95.572 7.44612 -1.98616 -3.99465 -5.37945 0.785148 -1.45695 0.0297502 1.56675 1.08842 -0.026448 1.56797 2.73314 -0.0526982 0.859303 23.2361 11.4416 -6.04342 -7.1714 10.7247 64.7995 5.3 2.13037 100.372 -0.226358 -32.6372 -7.52102e-006 -5.33935e-008 -7.20063e-006 29.48 71.4718 -24.8576 -2.02938e-006 -2.67398e-006 -3.00747 8.02917 -4.95097 0.697496 -73.2839 -1.33019 2.29878 -95.4093 3.37377 38.9338 2.25476e-006 9.81456e-007 -7.90843e-006 -42.8364 77.1201 41.5945 1.35821e-005 2.7576e-005 3.00971 -8.02923 -4.95098 -0.697525 176.936 -3.21719 -2.72775 180 7.01522e-015 178.82 177.999 4.68203 179.555 -2.2159e-006 2.7903e-007 0.045354 -18.7659 67.8838 19.4483 8.13218 25.2403 -3.48477 -171.849 -3.74851 -1.40117 4.5067e-006 -1.99009e-005 -1.22174 -2.32787 -9.06407 0.050794 -6.84131e-006 1.25732e-006 -0.260359 22.1257 71.4747 -22.9651 -8.13669 25.2692 3.43845 
49.7246 95.5694 7.43642 -1.98806 -3.99162 -5.39602 0.785084 -1.45518 0.0296303 1.56749 1.09198 -0.0270184 1.5687 2.7367 -0.0532876 0.874615 23.2212 11.449 -6.06126 -7.16302 10.7349 64.7992 5.29947 2.13013 100.368 -0.214164 -32.6649 -7.52102e-006 -5.33935e-008 -7.20063e-006 29.4991 71.4578 -24.8602 -2.02938e-006 -2.67398e-006 -3.00747 8.02917 -4.95097 0.697496 -73.2689 -1.32846 2.29656 -95.4304 3.40945 38.8833 2.25476e-006 9.81456e-007 -7.90843e-006 -42.7946 77.0604 41.5108 1.35821e-005 2.7576e-005 3.00971 -8.02923 -4.95098 -0.697525 176.944 -3.20565 -2.73186 180 7.01522e-015 178.82 177.997 4.68493 179.555 -2.2159e-006 2.7903e-007 0.045354 -18.7636 67.8832 19.4465 8.13218 25.2403 -3.48477 -171.841 -3.74703 -1.40584 4.5067e-006 -1.99009e-005 -1.22179 -2.32761 -9.06389 0.05077 -6.84131e-006 1.25732e-006 -0.260281 22.1234 71.4728 -22.9627 -8.13668 25.2691 3.43741 
49.7056 95.5707 7.42529 -1.99004 -3.98853 -5.41259 0.785037 -1.45344 0.0294912 1.56823 1.09547 -0.0276095 1.56944 2.74019 -0.0538975 0.889733 23.2066 11.4565 -6.07904 -7.15466 10.7451 64.7992 5.29909 2.12993 100.365 -0.201712 -32.691 -7.52102e-006 -5.33935e-008 -7.20063e-006 29.5179 71.4434 -24.8625 -2.02938e-006 -2.67398e-006 -3.00747 8.02917 -4.95097 0.697496 -73.2544 -1.32672 2.29438 -95.4511 3.4458 38.8319 2.25476e-006 9.81456e-007 -7.90843e-006 -42.752 76.9993 41.4255 1.35821e-005 2.7576e-005 3.00971 -8.02923 -4.95098 -0.697525 176.952 -3.19402 -2.73623 180 7.01522e-015 178.82 177.995 4.68799 179.555 -2.2159e-006 2.7903e-007 0.045354 -18.7612 67.8826 19.4446 8.13218 25.2403 -3.48477 -171.833 -3.74521 -1.41067 4.5067e-006 -1.99009e-005 -1.22182 -2.32739 -9.06423 0.0507369 -6.84131e-006 1.25732e-006 -0.26022 22.1215 71.4712 -22.9606 -8.13668 25.269 3.43638 
49.6979 95.5711 7.42258 -1.9921 -3.98537 -5.42917 0.785016 -1.45174 0.0293258 1.56898 1.09887 -0.0282288 1.57019 2.74359 -0.0545354 0.904585 23.1925 11.4642 -6.09673 -7.14633 10.7553 64.7996 5.29892 2.12979 100.361 -0.188903 -32.7149 -7.52102e-006 -5.33935e-008 -7.20063e-006 29.5363 71.4286 -24.8646 -2.02938e-006 -2.67398e-006 -3.00747 8.02917 -4.95097 0.697496 -73.2403 -1.32497 2.29226 -95.4716 3.48306 38.7792 2.25476e-006 9.81456e-007 -7.90843e-006 -42.7084 76.9365 41.3378 1.35821e-005 2.7576e-005 3.00971 -8.02923 -4.95098 -0.697525 176.96 -3.18227 -2.74095 180 7.01522e-015 178.821 177.994 4.69127 179.555 -2.2159e-006 2.7903e-007 0.045354 -18.7588 67.882 19.4428 8.13218 25.2403 -3.48477 -171.825 -3.74293 -1.4157 4.5067e-006 -1.99009e-005 -1.22184 -2.3272 -9.06528 0.0506912 -6.84131e-006 1.25732e-006 -0.260184 22.1199 71.4699 -22.9588 -8.13668 25.269 3.43539 
